<svg xmlns="http://www.w3.org/2000/svg" width="192" height="192" viewBox="0 0 192 192" fill="none">
  <rect width="192" height="192" rx="40" fill="#2A2D30"/>
  <path fill="#F0E8D2" fill-rule="evenodd" d="M96 36c-33.1 0-60 26.9-60 60 0 26.5 17.2 49 41 57 .3-2.5.6-6.3 0-9-2.2-.8-12.8-4.4-12.8-19.4 0-4.3 1.5-7.8 4-10.5-1.3-3.2-1.8-8.5.2-13.6 0 0 3.3-1 10.7 4 3.1-.9 6.4-1.3 9.7-1.3s6.6.4 9.7 1.3c7.4-5 10.7-4 10.7-4 2 5.1 1.5 10.4.2 13.6 2.5 2.7 4 6.2 4 10.5 0 15.1-10.6 18.6-12.8 19.4-.5 2.2-.4 5.7 0 9 23.8-8 41-30.5 41-57 0-33.1-26.9-60-60-60z"/>
</svg>
